<?xml version="1.0" standalone="no"?>
<!DOCTYPE svg PUBLIC "-//W3C//DTD SVG 20010904//EN"
 "http://www.w3.org/TR/2001/REC-SVG-20010904/DTD/svg10.dtd">
<svg version="1.0" xmlns="http://www.w3.org/2000/svg"
 width="957.000000pt" height="1280.000000pt" viewBox="0 0 957.000000 1280.000000"
 preserveAspectRatio="xMidYMid meet">
<metadata>
Created by potrace 1.15, written by Peter Selinger 2001-2017
</metadata>
<g transform="translate(0.000000,1280.000000) scale(0.100000,-0.100000)"
fill="#000000" stroke="none">
<path d="M4602 12780 c-202 -53 -371 -215 -431 -414 -12 -37 -21 -88 -21 -112
l0 -44 -991 0 c-1109 0 -1077 2 -1186 -69 -111 -72 -163 -149 -198 -296 l-22
-90 -877 -3 -876 -2 0 -5875 0 -5875 4785 0 4785 0 0 5875 0 5875 -887 2 -886
3 -18 81 c-30 142 -91 233 -202 305 -109 71 -75 69 -1205 69 l-1010 0 -6 54
c-46 364 -402 608 -754 516z m-2927 -1387 c-60 -239 -64 -334 -21 -429 47
-102 141 -168 263 -185 41 -6 1182 -8 2908 -7 2684 3 2842 4 2885 21 118 46
204 157 217 278 5 49 -24 228 -53 332 -5 16 32 17 680 17 l686 0 0 -5545 0
-5545 -4455 0 -4455 0 0 5545 0 5545 676 0 676 0 -7 -27z"/>
<path d="M2525 10657 c-52 -21 -74 -37 -89 -65 -7 -15 -35 -129 -61 -254 -47
-220 -48 -227 -31 -253 32 -49 66 -55 293 -55 117 0 225 5 246 11 22 6 54 25
73 42 29 27 37 45 51 113 24 116 26 114 -110 114 -83 0 -118 -4 -125 -13 -7
-7 -17 -37 -23 -67 -13 -63 -46 -100 -87 -100 -34 0 -52 16 -52 46 0 13 16 96
35 186 32 147 38 166 65 191 36 32 53 34 80 7 23 -23 24 -36 9 -99 -15 -66 -6
-71 121 -71 129 0 129 1 154 118 16 78 16 85 1 109 -31 47 -66 53 -302 52
-141 0 -229 -5 -248 -12z"/>
<path d="M3190 10655 c-20 -24 -139 -597 -127 -612 14 -19 171 -18 189 1 8 7
29 83 47 169 43 209 48 225 76 243 28 18 61 11 70 -15 3 -10 -10 -89 -29 -176
-39 -182 -38 -195 30 -221 36 -14 50 -14 93 -4 28 6 69 25 91 41 25 19 40 24
40 16 0 -8 12 -24 26 -38 25 -23 31 -24 209 -27 166 -3 189 -1 229 17 33 14
50 29 63 58 15 32 23 38 48 38 27 0 30 -3 35 -40 8 -66 39 -75 245 -75 157 0
174 2 215 23 31 15 51 34 63 60 15 30 24 37 48 37 29 0 29 0 27 -57 l-3 -58
83 -3 c45 -2 90 1 99 7 11 6 26 45 43 113 22 90 28 105 52 116 57 27 73 -3 56
-104 -11 -67 -10 -75 7 -94 10 -11 35 -25 55 -31 47 -14 134 9 179 47 l31 26
11 -26 c8 -16 28 -32 55 -42 36 -14 50 -14 93 -4 28 6 68 25 90 40 l39 28 10
-23 c6 -13 29 -30 56 -40 39 -15 52 -16 93 -6 26 7 66 25 89 41 l42 28 6 -23
c11 -43 59 -55 228 -55 84 0 169 5 189 10 56 16 86 52 97 118 16 94 7 103
-155 151 -40 12 -79 29 -88 37 -21 22 -19 56 6 88 30 38 68 32 91 -14 10 -19
25 -41 35 -47 27 -21 152 -16 196 6 34 17 37 17 33 3 -21 -76 -57 -277 -52
-296 11 -44 58 -56 228 -56 84 0 170 5 190 10 55 16 82 55 102 149 14 64 23
85 42 98 19 12 27 13 38 4 18 -15 27 6 14 31 -23 45 -141 64 -213 34 -29 -12
-36 -23 -49 -68 -8 -29 -18 -70 -22 -91 -9 -52 -40 -89 -72 -85 -46 5 -47 23
-12 186 l33 152 107 0 c112 0 126 5 130 45 5 45 4 45 -110 45 -60 0 -110 1
-110 3 0 1 4 17 9 35 17 57 9 62 -89 62 -63 0 -93 -4 -103 -14 -7 -8 -21 -51
-30 -96 -19 -92 -30 -112 -61 -108 -16 2 -22 11 -24 39 -6 69 -20 74 -228 77
-156 3 -189 1 -219 -14 -42 -20 -64 -57 -72 -123 -8 -74 3 -85 120 -122 120
-39 137 -51 137 -95 0 -33 -36 -74 -66 -74 -20 0 -45 31 -43 54 3 46 3 46 -91
46 l-90 0 -17 -37 c-14 -29 -24 -38 -43 -38 -37 0 -36 27 5 218 20 92 33 172
30 177 -8 13 -192 13 -200 0 -3 -6 -24 -94 -46 -197 -22 -103 -45 -191 -52
-195 -21 -14 -52 -4 -55 18 -2 11 20 127 48 258 27 131 48 242 44 247 -7 11
-174 12 -192 0 -8 -5 -36 -113 -68 -261 -29 -140 -59 -257 -66 -262 -20 -12
-48 -9 -54 6 -3 8 0 41 6 72 l12 58 -31 28 c-28 25 -39 28 -101 28 -39 0 -70
3 -70 6 0 3 11 20 25 39 33 43 81 65 142 65 63 0 75 10 77 56 l1 39 -85 3 -85
3 -84 -113 c-47 -62 -86 -107 -88 -101 -3 7 10 80 27 163 18 83 29 157 26 165
-7 20 -178 22 -194 3 -5 -7 -31 -112 -57 -233 -57 -271 -51 -252 -73 -232 -60
55 -249 37 -267 -25 -12 -37 -36 -58 -66 -58 -22 0 -30 6 -35 26 -8 30 41 269
62 301 31 49 94 31 94 -29 l0 -28 94 0 c102 0 109 4 121 57 19 89 -14 103
-245 103 -195 0 -235 -8 -264 -52 -8 -13 -30 -90 -47 -172 -25 -113 -35 -145
-43 -134 -21 28 -55 38 -133 38 -91 0 -122 -13 -144 -59 -18 -37 -35 -51 -66
-51 -36 0 -45 30 -30 97 l14 58 124 5 c155 6 186 20 210 95 32 98 32 114 -1
146 l-30 30 -202 -3 c-272 -4 -255 9 -308 -237 -17 -80 -36 -151 -42 -158 -15
-18 -47 -16 -55 3 -3 9 9 87 27 174 31 150 32 160 17 184 -22 32 -61 39 -188
34 l-100 -4 7 41 c17 93 20 90 -82 93 -72 2 -94 0 -104 -13z m853 -207 c7 -11
8 -32 1 -65 -9 -48 -9 -48 -53 -51 -24 -2 -47 0 -52 5 -14 14 12 93 39 114 29
22 50 22 65 -3z"/>
<path d="M5895 10654 c-10 -10 -15 -29 -13 -48 l3 -31 75 -3 c101 -4 118 1
128 41 14 49 1 57 -94 57 -63 0 -86 -4 -99 -16z"/>
<path d="M2125 9446 c-103 -49 -207 -114 -317 -198 -66 -50 -78 -56 -78 -38 0
20 -4 20 -315 20 l-315 0 0 -315 0 -315 315 0 315 0 0 176 c0 131 4 190 16
231 9 30 14 63 11 73 -9 36 178 190 372 305 79 47 100 65 101 83 0 12 -3 22
-7 22 -5 0 -48 -20 -98 -44z"/>
<path d="M2080 8700 c0 -7 1067 -10 3180 -10 2113 0 3180 3 3180 10 0 7 -1067
10 -3180 10 -2113 0 -3180 -3 -3180 -10z"/>
<path d="M2168 8366 c-83 -35 -234 -126 -340 -206 -81 -61 -93 -67 -96 -50 -3
20 -11 20 -318 20 l-314 0 0 -314 0 -314 83 -4 c163 -8 430 -9 488 -2 l59 7 0
169 c0 122 4 187 16 231 8 33 13 69 11 79 -9 33 194 195 386 309 70 42 87 57
87 76 0 12 -1 23 -2 23 -2 -1 -29 -11 -60 -24z"/>
<path d="M2080 7595 c0 -13 360 -15 3180 -15 2820 0 3180 2 3180 15 0 13 -360
15 -3180 15 -2820 0 -3180 -2 -3180 -15z"/>
<path d="M2130 7224 c-103 -49 -177 -95 -295 -181 -91 -67 -100 -71 -107 -53
-7 19 -16 20 -318 20 l-310 0 0 -314 0 -313 83 -6 c104 -9 510 -9 531 -1 14 5
16 30 16 176 0 122 4 187 16 231 8 33 13 69 11 79 -9 31 195 194 379 305 65
38 94 61 94 74 0 27 -15 24 -100 -17z"/>
<path d="M2080 6475 c0 -13 360 -15 3180 -15 2820 0 3180 2 3180 15 0 13 -360
15 -3180 15 -2820 0 -3180 -2 -3180 -15z"/>
<path d="M2120 6100 c-94 -46 -224 -129 -317 -201 -35 -27 -64 -49 -67 -49 -2
0 -6 9 -9 20 -5 20 -12 20 -314 18 l-308 -3 -3 -312 -2 -311 82 -7 c46 -3 187
-5 313 -3 l230 3 6 195 c3 123 10 207 18 228 7 18 11 44 8 58 -4 22 7 35 85
100 88 74 207 156 326 228 42 25 62 44 62 57 0 27 -15 24 -110 -21z"/>
<path d="M2080 5355 c0 -13 360 -15 3180 -15 2820 0 3180 2 3180 15 0 13 -360
15 -3180 15 -2820 0 -3180 -2 -3180 -15z"/>
<path d="M2153 5012 c-93 -42 -232 -127 -333 -204 -74 -56 -90 -64 -90 -48 0
20 -7 20 -315 20 l-315 0 0 -315 0 -315 315 0 315 0 0 176 c0 131 4 190 16
231 9 30 14 64 11 75 -6 22 14 44 123 133 74 60 221 159 297 201 39 22 53 35
53 52 0 28 -2 27 -77 -6z"/>
<path d="M2080 4255 c0 -13 360 -15 3180 -15 2820 0 3180 2 3180 15 0 13 -360
15 -3180 15 -2820 0 -3180 -2 -3180 -15z"/>
<path d="M2147 3906 c-90 -40 -211 -114 -329 -202 -71 -53 -83 -59 -86 -43 -3
18 -16 19 -318 19 l-314 0 0 -315 0 -315 315 0 315 0 0 176 c0 131 4 190 16
231 9 30 14 63 11 73 -3 14 9 33 42 63 70 65 234 185 339 247 73 43 92 60 92
78 0 12 -1 22 -2 22 -2 0 -38 -16 -81 -34z"/>
<path d="M2080 3145 c0 -13 360 -15 3180 -15 2820 0 3180 2 3180 15 0 13 -360
15 -3180 15 -2820 0 -3180 -2 -3180 -15z"/>
<path d="M2108 2766 c-97 -49 -223 -130 -313 -200 -54 -43 -60 -45 -63 -27 -3
21 -8 21 -318 21 l-314 0 0 -314 0 -313 92 -7 c114 -8 485 -8 516 0 22 6 22 8
22 176 0 122 4 187 16 231 8 33 13 69 11 79 -9 33 194 195 386 309 59 36 87
58 87 71 0 28 -26 22 -122 -26z"/>
<path d="M2080 2025 c0 -13 360 -15 3180 -15 2820 0 3180 2 3180 15 0 13 -360
15 -3180 15 -2820 0 -3180 -2 -3180 -15z"/>
<path d="M2112 1645 c-93 -45 -196 -110 -312 -197 -60 -46 -65 -48 -72 -28 -7
20 -14 20 -318 20 l-310 0 0 -314 0 -314 103 -7 c56 -3 197 -5 312 -3 l210 3
6 195 c3 111 11 212 18 234 7 21 10 47 8 57 -4 14 12 34 56 73 90 78 216 169
323 233 65 38 94 61 94 74 0 28 -16 24 -118 -26z"/>
<path d="M2080 905 c0 -13 360 -15 3180 -15 2820 0 3180 2 3180 15 0 13 -360
15 -3180 15 -2820 0 -3180 -2 -3180 -15z"/>
</g>
</svg>
